<mxfile host="app.diagrams.net" modified="2023-12-02T14:01:02.870Z" agent="Mozilla/5.0 (Windows NT 10.0; Win64; x64) AppleWebKit/537.36 (KHTML, like Gecko) Chrome/119.0.0.0 Safari/537.36" etag="AKVWdjUWh1xbvafB2aP5" version="22.1.5" type="device">
  <diagram name="Pagina-1" id="0XGIiVqICvq5J2eeaqmL">
    <mxGraphModel dx="1434" dy="750" grid="0" gridSize="10" guides="1" tooltips="1" connect="1" arrows="1" fold="1" page="1" pageScale="1" pageWidth="827" pageHeight="1169" math="0" shadow="0">
      <root>
        <mxCell id="0" />
        <mxCell id="1" parent="0" />
        <mxCell id="Hw16J8x-1yyb94UdUWMJ-4" value="User&lt;br&gt;" style="shape=umlActor;verticalLabelPosition=bottom;verticalAlign=top;html=1;" parent="1" vertex="1">
          <mxGeometry x="54" y="61" width="30" height="60" as="geometry" />
        </mxCell>
        <mxCell id="Hw16J8x-1yyb94UdUWMJ-7" value="Interface:UI" style="html=1;whiteSpace=wrap;" parent="1" vertex="1">
          <mxGeometry x="164" y="66" width="110" height="50" as="geometry" />
        </mxCell>
        <mxCell id="Hw16J8x-1yyb94UdUWMJ-8" value="Proxy" style="html=1;whiteSpace=wrap;" parent="1" vertex="1">
          <mxGeometry x="375" y="66" width="110" height="50" as="geometry" />
        </mxCell>
        <mxCell id="Hw16J8x-1yyb94UdUWMJ-9" value="FileController" style="html=1;whiteSpace=wrap;" parent="1" vertex="1">
          <mxGeometry x="588" y="66" width="110" height="50" as="geometry" />
        </mxCell>
        <mxCell id="Hw16J8x-1yyb94UdUWMJ-10" value="FileService" style="html=1;whiteSpace=wrap;" parent="1" vertex="1">
          <mxGeometry x="796" y="66" width="110" height="50" as="geometry" />
        </mxCell>
        <mxCell id="Hw16J8x-1yyb94UdUWMJ-13" style="edgeStyle=orthogonalEdgeStyle;rounded=0;orthogonalLoop=1;jettySize=auto;html=1;curved=0;" parent="1" target="Hw16J8x-1yyb94UdUWMJ-12" edge="1">
          <mxGeometry relative="1" as="geometry">
            <mxPoint x="190" y="169" as="targetPoint" />
            <mxPoint x="74" y="169.01724137931046" as="sourcePoint" />
            <Array as="points">
              <mxPoint x="173" y="169" />
              <mxPoint x="173" y="169" />
            </Array>
          </mxGeometry>
        </mxCell>
        <mxCell id="Hw16J8x-1yyb94UdUWMJ-11" value="" style="html=1;points=[[0,0,0,0,5],[0,1,0,0,-5],[1,0,0,0,5],[1,1,0,0,-5]];perimeter=orthogonalPerimeter;outlineConnect=0;targetShapes=umlLifeline;portConstraint=eastwest;newEdgeStyle={&quot;curved&quot;:0,&quot;rounded&quot;:0};" parent="1" vertex="1">
          <mxGeometry x="64" y="151" width="10" height="319" as="geometry" />
        </mxCell>
        <mxCell id="Hw16J8x-1yyb94UdUWMJ-17" style="edgeStyle=orthogonalEdgeStyle;rounded=0;orthogonalLoop=1;jettySize=auto;html=1;curved=0;" parent="1" edge="1">
          <mxGeometry relative="1" as="geometry">
            <mxPoint x="215" y="186" as="sourcePoint" />
            <mxPoint x="425" y="186" as="targetPoint" />
          </mxGeometry>
        </mxCell>
        <mxCell id="Hw16J8x-1yyb94UdUWMJ-61" style="edgeStyle=orthogonalEdgeStyle;rounded=0;orthogonalLoop=1;jettySize=auto;html=1;curved=0;" parent="1" edge="1">
          <mxGeometry relative="1" as="geometry">
            <mxPoint x="205" y="441.51428571428573" as="sourcePoint" />
            <mxPoint x="74" y="442.02857142857135" as="targetPoint" />
          </mxGeometry>
        </mxCell>
        <mxCell id="Hw16J8x-1yyb94UdUWMJ-12" value="" style="html=1;points=[[0,0,0,0,5],[0,1,0,0,-5],[1,0,0,0,5],[1,1,0,0,-5]];perimeter=orthogonalPerimeter;outlineConnect=0;targetShapes=umlLifeline;portConstraint=eastwest;newEdgeStyle={&quot;curved&quot;:0,&quot;rounded&quot;:0};" parent="1" vertex="1">
          <mxGeometry x="205" y="151" width="10" height="322" as="geometry" />
        </mxCell>
        <mxCell id="Hw16J8x-1yyb94UdUWMJ-14" value="chose file to upload" style="text;html=1;align=center;verticalAlign=middle;resizable=0;points=[];autosize=1;strokeColor=none;fillColor=none;" parent="1" vertex="1">
          <mxGeometry x="76" y="144" width="121" height="26" as="geometry" />
        </mxCell>
        <mxCell id="Hw16J8x-1yyb94UdUWMJ-59" style="edgeStyle=orthogonalEdgeStyle;rounded=0;orthogonalLoop=1;jettySize=auto;html=1;curved=0;" parent="1" edge="1">
          <mxGeometry relative="1" as="geometry">
            <mxPoint x="425" y="392" as="sourcePoint" />
            <mxPoint x="215" y="392" as="targetPoint" />
            <Array as="points">
              <mxPoint x="273" y="392" />
              <mxPoint x="273" y="392" />
            </Array>
          </mxGeometry>
        </mxCell>
        <mxCell id="Hw16J8x-1yyb94UdUWMJ-15" value="" style="html=1;points=[[0,0,0,0,5],[0,1,0,0,-5],[1,0,0,0,5],[1,1,0,0,-5]];perimeter=orthogonalPerimeter;outlineConnect=0;targetShapes=umlLifeline;portConstraint=eastwest;newEdgeStyle={&quot;curved&quot;:0,&quot;rounded&quot;:0};" parent="1" vertex="1">
          <mxGeometry x="425" y="151" width="10" height="263" as="geometry" />
        </mxCell>
        <mxCell id="Hw16J8x-1yyb94UdUWMJ-18" value="send(encryptedFile, TAG)" style="text;html=1;align=center;verticalAlign=middle;resizable=0;points=[];autosize=1;strokeColor=none;fillColor=none;" parent="1" vertex="1">
          <mxGeometry x="237" y="160" width="154" height="26" as="geometry" />
        </mxCell>
        <mxCell id="Hw16J8x-1yyb94UdUWMJ-24" style="edgeStyle=orthogonalEdgeStyle;rounded=0;orthogonalLoop=1;jettySize=auto;html=1;curved=0;" parent="1" edge="1">
          <mxGeometry relative="1" as="geometry">
            <mxPoint x="648" y="241" as="sourcePoint" />
            <mxPoint x="846" y="241" as="targetPoint" />
          </mxGeometry>
        </mxCell>
        <mxCell id="Hw16J8x-1yyb94UdUWMJ-29" style="edgeStyle=orthogonalEdgeStyle;rounded=0;orthogonalLoop=1;jettySize=auto;html=1;curved=0;" parent="1" edge="1">
          <mxGeometry relative="1" as="geometry">
            <mxPoint x="638" y="309" as="sourcePoint" />
            <mxPoint x="435" y="309" as="targetPoint" />
            <Array as="points">
              <mxPoint x="587" y="309" />
              <mxPoint x="587" y="309" />
            </Array>
          </mxGeometry>
        </mxCell>
        <mxCell id="Hw16J8x-1yyb94UdUWMJ-20" value="" style="html=1;points=[[0,0,0,0,5],[0,1,0,0,-5],[1,0,0,0,5],[1,1,0,0,-5]];perimeter=orthogonalPerimeter;outlineConnect=0;targetShapes=umlLifeline;portConstraint=eastwest;newEdgeStyle={&quot;curved&quot;:0,&quot;rounded&quot;:0};" parent="1" vertex="1">
          <mxGeometry x="638" y="191" width="10" height="135" as="geometry" />
        </mxCell>
        <mxCell id="Hw16J8x-1yyb94UdUWMJ-21" style="edgeStyle=orthogonalEdgeStyle;rounded=0;orthogonalLoop=1;jettySize=auto;html=1;curved=0;entryX=-0.005;entryY=0.5;entryDx=0;entryDy=0;entryPerimeter=0;" parent="1" edge="1">
          <mxGeometry relative="1" as="geometry">
            <mxPoint x="435" y="215" as="sourcePoint" />
            <mxPoint x="637.9499999999998" y="215" as="targetPoint" />
          </mxGeometry>
        </mxCell>
        <mxCell id="Hw16J8x-1yyb94UdUWMJ-22" value="send(TAG)" style="text;html=1;align=center;verticalAlign=middle;resizable=0;points=[];autosize=1;strokeColor=none;fillColor=none;" parent="1" vertex="1">
          <mxGeometry x="496" y="186" width="76" height="26" as="geometry" />
        </mxCell>
        <mxCell id="Hw16J8x-1yyb94UdUWMJ-23" value="" style="html=1;points=[[0,0,0,0,5],[0,1,0,0,-5],[1,0,0,0,5],[1,1,0,0,-5]];perimeter=orthogonalPerimeter;outlineConnect=0;targetShapes=umlLifeline;portConstraint=eastwest;newEdgeStyle={&quot;curved&quot;:0,&quot;rounded&quot;:0};" parent="1" vertex="1">
          <mxGeometry x="846" y="216" width="10" height="82" as="geometry" />
        </mxCell>
        <mxCell id="Hw16J8x-1yyb94UdUWMJ-25" value="exists(TAG)" style="text;html=1;align=center;verticalAlign=middle;resizable=0;points=[];autosize=1;strokeColor=none;fillColor=none;" parent="1" vertex="1">
          <mxGeometry x="705" y="214" width="80" height="26" as="geometry" />
        </mxCell>
        <mxCell id="Hw16J8x-1yyb94UdUWMJ-26" style="edgeStyle=orthogonalEdgeStyle;rounded=0;orthogonalLoop=1;jettySize=auto;html=1;curved=0;entryX=1.043;entryY=0.5;entryDx=0;entryDy=0;entryPerimeter=0;" parent="1" edge="1">
          <mxGeometry relative="1" as="geometry">
            <mxPoint x="846" y="278" as="sourcePoint" />
            <mxPoint x="648.4299999999998" y="278" as="targetPoint" />
          </mxGeometry>
        </mxCell>
        <mxCell id="Hw16J8x-1yyb94UdUWMJ-27" value="response(false)" style="text;html=1;align=center;verticalAlign=middle;resizable=0;points=[];autosize=1;strokeColor=none;fillColor=none;" parent="1" vertex="1">
          <mxGeometry x="702" y="254" width="101" height="26" as="geometry" />
        </mxCell>
        <mxCell id="Hw16J8x-1yyb94UdUWMJ-30" value="response(false)" style="text;html=1;align=center;verticalAlign=middle;resizable=0;points=[];autosize=1;strokeColor=none;fillColor=none;" parent="1" vertex="1">
          <mxGeometry x="488" y="286" width="101" height="26" as="geometry" />
        </mxCell>
        <mxCell id="Hw16J8x-1yyb94UdUWMJ-79" style="edgeStyle=orthogonalEdgeStyle;rounded=0;orthogonalLoop=1;jettySize=auto;html=1;curved=0;" parent="1" edge="1">
          <mxGeometry relative="1" as="geometry">
            <mxPoint x="638" y="703" as="sourcePoint" />
            <mxPoint x="435" y="703" as="targetPoint" />
            <Array as="points">
              <mxPoint x="485" y="703" />
              <mxPoint x="485" y="703" />
            </Array>
          </mxGeometry>
        </mxCell>
        <mxCell id="Hw16J8x-1yyb94UdUWMJ-31" value="" style="html=1;points=[[0,0,0,0,5],[0,1,0,0,-5],[1,0,0,0,5],[1,1,0,0,-5]];perimeter=orthogonalPerimeter;outlineConnect=0;targetShapes=umlLifeline;portConstraint=eastwest;newEdgeStyle={&quot;curved&quot;:0,&quot;rounded&quot;:0};" parent="1" vertex="1">
          <mxGeometry x="638" y="548" width="10" height="184" as="geometry" />
        </mxCell>
        <mxCell id="Hw16J8x-1yyb94UdUWMJ-40" style="edgeStyle=orthogonalEdgeStyle;rounded=0;orthogonalLoop=1;jettySize=auto;html=1;curved=0;" parent="1" edge="1">
          <mxGeometry relative="1" as="geometry">
            <mxPoint x="846" y="675" as="sourcePoint" />
            <mxPoint x="648" y="675" as="targetPoint" />
            <Array as="points">
              <mxPoint x="796" y="675" />
              <mxPoint x="796" y="675" />
            </Array>
          </mxGeometry>
        </mxCell>
        <mxCell id="Hw16J8x-1yyb94UdUWMJ-34" value="" style="html=1;points=[[0,0,0,0,5],[0,1,0,0,-5],[1,0,0,0,5],[1,1,0,0,-5]];perimeter=orthogonalPerimeter;outlineConnect=0;targetShapes=umlLifeline;portConstraint=eastwest;newEdgeStyle={&quot;curved&quot;:0,&quot;rounded&quot;:0};" parent="1" vertex="1">
          <mxGeometry x="846" y="566" width="10" height="130" as="geometry" />
        </mxCell>
        <mxCell id="Hw16J8x-1yyb94UdUWMJ-35" style="edgeStyle=orthogonalEdgeStyle;rounded=0;orthogonalLoop=1;jettySize=auto;html=1;curved=0;entryX=-0.043;entryY=0.665;entryDx=0;entryDy=0;entryPerimeter=0;" parent="1" edge="1">
          <mxGeometry relative="1" as="geometry">
            <mxPoint x="648" y="584.53" as="sourcePoint" />
            <mxPoint x="845.5699999999999" y="584.53" as="targetPoint" />
          </mxGeometry>
        </mxCell>
        <mxCell id="Hw16J8x-1yyb94UdUWMJ-36" value="saveFile(encryptedFile)" style="text;html=1;align=center;verticalAlign=middle;resizable=0;points=[];autosize=1;strokeColor=none;fillColor=none;" parent="1" vertex="1">
          <mxGeometry x="671" y="561" width="143" height="26" as="geometry" />
        </mxCell>
        <mxCell id="Hw16J8x-1yyb94UdUWMJ-41" value="sendOkStatus()" style="text;html=1;align=center;verticalAlign=middle;resizable=0;points=[];autosize=1;strokeColor=none;fillColor=none;" parent="1" vertex="1">
          <mxGeometry x="692.5" y="656" width="101" height="26" as="geometry" />
        </mxCell>
        <mxCell id="Hw16J8x-1yyb94UdUWMJ-49" value="" style="endArrow=classic;html=1;rounded=0;" parent="1" edge="1">
          <mxGeometry width="50" height="50" relative="1" as="geometry">
            <mxPoint x="435" y="345" as="sourcePoint" />
            <mxPoint x="434.9999999999998" y="366" as="targetPoint" />
            <Array as="points">
              <mxPoint x="469" y="345" />
              <mxPoint x="469" y="366" />
            </Array>
          </mxGeometry>
        </mxCell>
        <mxCell id="Hw16J8x-1yyb94UdUWMJ-50" value="SaveInCache(encryptedFile)" style="text;html=1;align=center;verticalAlign=middle;resizable=0;points=[];autosize=1;strokeColor=none;fillColor=none;" parent="1" vertex="1">
          <mxGeometry x="460.5" y="343" width="170" height="26" as="geometry" />
        </mxCell>
        <mxCell id="Hw16J8x-1yyb94UdUWMJ-60" value="sendOkStatus()" style="text;html=1;align=center;verticalAlign=middle;resizable=0;points=[];autosize=1;strokeColor=none;fillColor=none;" parent="1" vertex="1">
          <mxGeometry x="281" y="370" width="101" height="26" as="geometry" />
        </mxCell>
        <mxCell id="Hw16J8x-1yyb94UdUWMJ-62" value="display(file uploaded)" style="text;html=1;align=center;verticalAlign=middle;resizable=0;points=[];autosize=1;strokeColor=none;fillColor=none;" parent="1" vertex="1">
          <mxGeometry x="80" y="415" width="131" height="26" as="geometry" />
        </mxCell>
        <mxCell id="Hw16J8x-1yyb94UdUWMJ-63" value="" style="endArrow=none;dashed=1;html=1;rounded=0;" parent="1" edge="1">
          <mxGeometry width="50" height="50" relative="1" as="geometry">
            <mxPoint x="643" y="540" as="sourcePoint" />
            <mxPoint x="643" y="326" as="targetPoint" />
          </mxGeometry>
        </mxCell>
        <mxCell id="Hw16J8x-1yyb94UdUWMJ-64" value="" style="endArrow=none;dashed=1;html=1;rounded=0;" parent="1" edge="1">
          <mxGeometry width="50" height="50" relative="1" as="geometry">
            <mxPoint x="851" y="564" as="sourcePoint" />
            <mxPoint x="850.71" y="295" as="targetPoint" />
          </mxGeometry>
        </mxCell>
        <mxCell id="Hw16J8x-1yyb94UdUWMJ-68" style="edgeStyle=orthogonalEdgeStyle;rounded=0;orthogonalLoop=1;jettySize=auto;html=1;curved=0;" parent="1" source="Hw16J8x-1yyb94UdUWMJ-65" target="Hw16J8x-1yyb94UdUWMJ-31" edge="1">
          <mxGeometry relative="1" as="geometry">
            <Array as="points">
              <mxPoint x="586" y="566" />
              <mxPoint x="586" y="566" />
            </Array>
          </mxGeometry>
        </mxCell>
        <mxCell id="Hw16J8x-1yyb94UdUWMJ-65" value="" style="html=1;points=[[0,0,0,0,5],[0,1,0,0,-5],[1,0,0,0,5],[1,1,0,0,-5]];perimeter=orthogonalPerimeter;outlineConnect=0;targetShapes=umlLifeline;portConstraint=eastwest;newEdgeStyle={&quot;curved&quot;:0,&quot;rounded&quot;:0};" parent="1" vertex="1">
          <mxGeometry x="425" y="517" width="10" height="240" as="geometry" />
        </mxCell>
        <mxCell id="Hw16J8x-1yyb94UdUWMJ-66" value="" style="endArrow=classic;html=1;rounded=0;" parent="1" edge="1">
          <mxGeometry width="50" height="50" relative="1" as="geometry">
            <mxPoint x="435" y="529" as="sourcePoint" />
            <mxPoint x="434.9999999999998" y="550" as="targetPoint" />
            <Array as="points">
              <mxPoint x="469" y="529" />
              <mxPoint x="469" y="550" />
            </Array>
          </mxGeometry>
        </mxCell>
        <mxCell id="Hw16J8x-1yyb94UdUWMJ-67" value="getFileFromCache()" style="text;html=1;align=center;verticalAlign=middle;resizable=0;points=[];autosize=1;strokeColor=none;fillColor=none;" parent="1" vertex="1">
          <mxGeometry x="463.5" y="527" width="125" height="26" as="geometry" />
        </mxCell>
        <mxCell id="Hw16J8x-1yyb94UdUWMJ-69" value="send(encryptedFile)" style="text;html=1;align=center;verticalAlign=middle;resizable=0;points=[];autosize=1;strokeColor=none;fillColor=none;" parent="1" vertex="1">
          <mxGeometry x="482" y="545" width="124" height="26" as="geometry" />
        </mxCell>
        <mxCell id="Hw16J8x-1yyb94UdUWMJ-75" value="" style="endArrow=classic;html=1;rounded=0;" parent="1" edge="1">
          <mxGeometry width="50" height="50" relative="1" as="geometry">
            <mxPoint x="856" y="596" as="sourcePoint" />
            <mxPoint x="855.9999999999998" y="617" as="targetPoint" />
            <Array as="points">
              <mxPoint x="890" y="596" />
              <mxPoint x="890" y="617" />
            </Array>
          </mxGeometry>
        </mxCell>
        <mxCell id="Hw16J8x-1yyb94UdUWMJ-76" value="generateChalllenges(encryptedFile)" style="text;html=1;align=center;verticalAlign=middle;resizable=0;points=[];autosize=1;strokeColor=none;fillColor=none;" parent="1" vertex="1">
          <mxGeometry x="884.5" y="594" width="208" height="26" as="geometry" />
        </mxCell>
        <mxCell id="Hw16J8x-1yyb94UdUWMJ-77" value="" style="endArrow=classic;html=1;rounded=0;" parent="1" edge="1">
          <mxGeometry width="50" height="50" relative="1" as="geometry">
            <mxPoint x="856" y="632" as="sourcePoint" />
            <mxPoint x="855.9999999999998" y="653" as="targetPoint" />
            <Array as="points">
              <mxPoint x="890" y="632" />
              <mxPoint x="890" y="653" />
            </Array>
          </mxGeometry>
        </mxCell>
        <mxCell id="Hw16J8x-1yyb94UdUWMJ-78" value="saveFileInCloud(encryptedFIle)" style="text;html=1;align=center;verticalAlign=middle;resizable=0;points=[];autosize=1;strokeColor=none;fillColor=none;" parent="1" vertex="1">
          <mxGeometry x="885.5" y="630" width="185" height="26" as="geometry" />
        </mxCell>
        <mxCell id="Hw16J8x-1yyb94UdUWMJ-80" value="sendOkStatus" style="text;html=1;align=center;verticalAlign=middle;resizable=0;points=[];autosize=1;strokeColor=none;fillColor=none;" parent="1" vertex="1">
          <mxGeometry x="478" y="682" width="93" height="26" as="geometry" />
        </mxCell>
        <mxCell id="Hw16J8x-1yyb94UdUWMJ-83" value="" style="endArrow=none;dashed=1;html=1;rounded=0;" parent="1" edge="1">
          <mxGeometry width="50" height="50" relative="1" as="geometry">
            <mxPoint x="70" y="750" as="sourcePoint" />
            <mxPoint x="70" y="470" as="targetPoint" />
          </mxGeometry>
        </mxCell>
        <mxCell id="Hw16J8x-1yyb94UdUWMJ-84" value="" style="endArrow=none;dashed=1;html=1;rounded=0;" parent="1" edge="1">
          <mxGeometry width="50" height="50" relative="1" as="geometry">
            <mxPoint x="209" y="755" as="sourcePoint" />
            <mxPoint x="211" y="473" as="targetPoint" />
          </mxGeometry>
        </mxCell>
        <mxCell id="Hw16J8x-1yyb94UdUWMJ-85" value="" style="endArrow=none;dashed=1;html=1;rounded=0;" parent="1" edge="1">
          <mxGeometry width="50" height="50" relative="1" as="geometry">
            <mxPoint x="431" y="517" as="sourcePoint" />
            <mxPoint x="431" y="411" as="targetPoint" />
          </mxGeometry>
        </mxCell>
        <mxCell id="Hw16J8x-1yyb94UdUWMJ-86" value="" style="endArrow=none;dashed=1;html=1;rounded=0;entryX=0.5;entryY=1;entryDx=0;entryDy=0;" parent="1" target="Hw16J8x-1yyb94UdUWMJ-10" edge="1">
          <mxGeometry width="50" height="50" relative="1" as="geometry">
            <mxPoint x="851" y="218" as="sourcePoint" />
            <mxPoint x="850.58" y="151" as="targetPoint" />
          </mxGeometry>
        </mxCell>
        <mxCell id="Hw16J8x-1yyb94UdUWMJ-87" value="" style="endArrow=none;dashed=1;html=1;rounded=0;entryX=0.5;entryY=1;entryDx=0;entryDy=0;" parent="1" target="Hw16J8x-1yyb94UdUWMJ-9" edge="1">
          <mxGeometry width="50" height="50" relative="1" as="geometry">
            <mxPoint x="643" y="191" as="sourcePoint" />
            <mxPoint x="642.58" y="151" as="targetPoint" />
          </mxGeometry>
        </mxCell>
        <mxCell id="Hw16J8x-1yyb94UdUWMJ-89" value="" style="endArrow=none;dashed=1;html=1;rounded=0;entryX=0.5;entryY=1;entryDx=0;entryDy=0;" parent="1" edge="1">
          <mxGeometry width="50" height="50" relative="1" as="geometry">
            <mxPoint x="430" y="152" as="sourcePoint" />
            <mxPoint x="429.8" y="116" as="targetPoint" />
          </mxGeometry>
        </mxCell>
        <mxCell id="Hw16J8x-1yyb94UdUWMJ-90" value="" style="endArrow=none;dashed=1;html=1;rounded=0;entryX=0.5;entryY=1;entryDx=0;entryDy=0;" parent="1" edge="1">
          <mxGeometry width="50" height="50" relative="1" as="geometry">
            <mxPoint x="211.2" y="152" as="sourcePoint" />
            <mxPoint x="211" y="116" as="targetPoint" />
          </mxGeometry>
        </mxCell>
      </root>
    </mxGraphModel>
  </diagram>
</mxfile>
